<mxfile host="Electron" modified="2024-07-23T20:28:31.951Z" agent="Mozilla/5.0 (Windows NT 10.0; Win64; x64) AppleWebKit/537.36 (KHTML, like Gecko) draw.io/24.5.3 Chrome/124.0.6367.207 Electron/30.0.6 Safari/537.36" etag="c3iyyoVHq1SNz1Siq8TN" version="24.5.3" type="device">
  <diagram name="PRINCIPAL" id="Pz2ejgBKETDfGewVfoZf">
    <mxGraphModel dx="1053" dy="1142" grid="1" gridSize="10" guides="1" tooltips="1" connect="1" arrows="1" fold="1" page="1" pageScale="1" pageWidth="827" pageHeight="1169" math="0" shadow="0">
      <root>
        <mxCell id="0" />
        <mxCell id="1" parent="0" />
        <mxCell id="Fb8rGU0Vb5hr_vx5dvEx-1" value="" style="edgeStyle=orthogonalEdgeStyle;rounded=0;orthogonalLoop=1;jettySize=auto;html=1;" parent="1" source="Fb8rGU0Vb5hr_vx5dvEx-2" target="Fb8rGU0Vb5hr_vx5dvEx-9" edge="1">
          <mxGeometry relative="1" as="geometry" />
        </mxCell>
        <mxCell id="Fb8rGU0Vb5hr_vx5dvEx-2" value="INICIO" style="strokeWidth=2;html=1;shape=mxgraph.flowchart.start_1;whiteSpace=wrap;" parent="1" vertex="1">
          <mxGeometry x="60" y="20" width="100" height="60" as="geometry" />
        </mxCell>
        <mxCell id="Fb8rGU0Vb5hr_vx5dvEx-3" value="" style="edgeStyle=orthogonalEdgeStyle;rounded=0;orthogonalLoop=1;jettySize=auto;html=1;" parent="1" source="Fb8rGU0Vb5hr_vx5dvEx-4" target="Fb8rGU0Vb5hr_vx5dvEx-10" edge="1">
          <mxGeometry relative="1" as="geometry" />
        </mxCell>
        <UserObject label="FINALIZAR" id="Fb8rGU0Vb5hr_vx5dvEx-4">
          <mxCell style="shape=process;whiteSpace=wrap;html=1;backgroundOutline=1;" parent="1" vertex="1">
            <mxGeometry x="50" y="400" width="120" height="60" as="geometry" />
          </mxCell>
        </UserObject>
        <mxCell id="Fb8rGU0Vb5hr_vx5dvEx-5" value="" style="edgeStyle=orthogonalEdgeStyle;rounded=0;orthogonalLoop=1;jettySize=auto;html=1;" parent="1" source="Fb8rGU0Vb5hr_vx5dvEx-6" target="Fb8rGU0Vb5hr_vx5dvEx-4" edge="1">
          <mxGeometry relative="1" as="geometry" />
        </mxCell>
        <UserObject label="PROCESSAR&amp;nbsp;&lt;div&gt;ATÃ‰ EOF&lt;/div&gt;" id="Fb8rGU0Vb5hr_vx5dvEx-6">
          <mxCell style="shape=process;whiteSpace=wrap;html=1;backgroundOutline=1;" parent="1" vertex="1">
            <mxGeometry x="50" y="270" width="120" height="60" as="geometry" />
          </mxCell>
        </UserObject>
        <mxCell id="Fb8rGU0Vb5hr_vx5dvEx-7" value="" style="edgeStyle=orthogonalEdgeStyle;rounded=0;orthogonalLoop=1;jettySize=auto;html=1;" parent="1" source="Fb8rGU0Vb5hr_vx5dvEx-9" target="Fb8rGU0Vb5hr_vx5dvEx-6" edge="1">
          <mxGeometry relative="1" as="geometry" />
        </mxCell>
        <mxCell id="Fb8rGU0Vb5hr_vx5dvEx-8" value="" style="edgeStyle=orthogonalEdgeStyle;rounded=0;orthogonalLoop=1;jettySize=auto;html=1;" parent="1" source="Fb8rGU0Vb5hr_vx5dvEx-9" target="Fb8rGU0Vb5hr_vx5dvEx-6" edge="1">
          <mxGeometry relative="1" as="geometry" />
        </mxCell>
        <UserObject label="INICIAR" id="Fb8rGU0Vb5hr_vx5dvEx-9">
          <mxCell style="shape=process;whiteSpace=wrap;html=1;backgroundOutline=1;" parent="1" vertex="1">
            <mxGeometry x="50" y="140" width="120" height="60" as="geometry" />
          </mxCell>
        </UserObject>
        <mxCell id="Fb8rGU0Vb5hr_vx5dvEx-10" value="FIM" style="strokeWidth=2;html=1;shape=mxgraph.flowchart.start_1;whiteSpace=wrap;" parent="1" vertex="1">
          <mxGeometry x="60" y="514.5" width="100" height="60" as="geometry" />
        </mxCell>
        <mxCell id="Fb8rGU0Vb5hr_vx5dvEx-11" value="" style="edgeStyle=orthogonalEdgeStyle;rounded=0;orthogonalLoop=1;jettySize=auto;html=1;" parent="1" source="Fb8rGU0Vb5hr_vx5dvEx-12" target="Fb8rGU0Vb5hr_vx5dvEx-14" edge="1">
          <mxGeometry relative="1" as="geometry" />
        </mxCell>
        <mxCell id="Fb8rGU0Vb5hr_vx5dvEx-12" value="INICIAR" style="strokeWidth=2;html=1;shape=mxgraph.flowchart.start_1;whiteSpace=wrap;" parent="1" vertex="1">
          <mxGeometry x="304" y="24.5" width="100" height="60" as="geometry" />
        </mxCell>
        <mxCell id="DAHMAMu0Ol-qw6mLWcHy-2" value="" style="edgeStyle=orthogonalEdgeStyle;rounded=0;orthogonalLoop=1;jettySize=auto;html=1;" parent="1" source="Fb8rGU0Vb5hr_vx5dvEx-14" target="DAHMAMu0Ol-qw6mLWcHy-1" edge="1">
          <mxGeometry relative="1" as="geometry" />
        </mxCell>
        <mxCell id="Fb8rGU0Vb5hr_vx5dvEx-14" value="ABRIR ARQ&lt;div&gt;LANCAM&lt;/div&gt;&lt;div&gt;&lt;br&gt;&lt;/div&gt;&lt;div&gt;ABRIR ARQ&lt;/div&gt;&lt;div&gt;REGCAM&lt;/div&gt;" style="shape=parallelogram;perimeter=parallelogramPerimeter;whiteSpace=wrap;html=1;fixedSize=1;" parent="1" vertex="1">
          <mxGeometry x="294" y="144.5" width="120" height="70" as="geometry" />
        </mxCell>
        <mxCell id="Fb8rGU0Vb5hr_vx5dvEx-20" value="FIM-INICIALIZAR" style="strokeWidth=2;html=1;shape=mxgraph.flowchart.start_1;whiteSpace=wrap;" parent="1" vertex="1">
          <mxGeometry x="304" y="514.5" width="100" height="60" as="geometry" />
        </mxCell>
        <mxCell id="Fb8rGU0Vb5hr_vx5dvEx-24" value="" style="edgeStyle=orthogonalEdgeStyle;rounded=0;orthogonalLoop=1;jettySize=auto;html=1;" parent="1" source="Fb8rGU0Vb5hr_vx5dvEx-25" target="Fb8rGU0Vb5hr_vx5dvEx-27" edge="1">
          <mxGeometry relative="1" as="geometry" />
        </mxCell>
        <mxCell id="Fb8rGU0Vb5hr_vx5dvEx-25" value="PROCESSAR" style="strokeWidth=2;html=1;shape=mxgraph.flowchart.start_1;whiteSpace=wrap;" parent="1" vertex="1">
          <mxGeometry x="1760" y="24.5" width="100" height="60" as="geometry" />
        </mxCell>
        <mxCell id="DAHMAMu0Ol-qw6mLWcHy-57" value="" style="edgeStyle=orthogonalEdgeStyle;rounded=0;orthogonalLoop=1;jettySize=auto;html=1;" parent="1" source="Fb8rGU0Vb5hr_vx5dvEx-27" target="DAHMAMu0Ol-qw6mLWcHy-56" edge="1">
          <mxGeometry relative="1" as="geometry" />
        </mxCell>
        <mxCell id="Fb8rGU0Vb5hr_vx5dvEx-27" value="ACUM-LIDO = ACUM-LIDO + 1" style="rounded=1;whiteSpace=wrap;html=1;absoluteArcSize=1;arcSize=14;strokeWidth=2;" parent="1" vertex="1">
          <mxGeometry x="1750" y="144.5" width="120" height="100" as="geometry" />
        </mxCell>
        <mxCell id="Fb8rGU0Vb5hr_vx5dvEx-28" value="FIM-PROCESSAR" style="strokeWidth=2;html=1;shape=mxgraph.flowchart.start_1;whiteSpace=wrap;" parent="1" vertex="1">
          <mxGeometry x="1760" y="1290" width="100" height="60" as="geometry" />
        </mxCell>
        <mxCell id="DAHMAMu0Ol-qw6mLWcHy-101" value="" style="edgeStyle=orthogonalEdgeStyle;rounded=0;orthogonalLoop=1;jettySize=auto;html=1;" parent="1" source="Fb8rGU0Vb5hr_vx5dvEx-30" target="DAHMAMu0Ol-qw6mLWcHy-99" edge="1">
          <mxGeometry relative="1" as="geometry" />
        </mxCell>
        <mxCell id="Fb8rGU0Vb5hr_vx5dvEx-30" value="FINALIZAR" style="strokeWidth=2;html=1;shape=mxgraph.flowchart.start_1;whiteSpace=wrap;" parent="1" vertex="1">
          <mxGeometry x="3250" y="20" width="100" height="60" as="geometry" />
        </mxCell>
        <mxCell id="Fb8rGU0Vb5hr_vx5dvEx-36" value="SOMA-LANCAMENTO" style="strokeWidth=2;html=1;shape=mxgraph.flowchart.start_1;whiteSpace=wrap;" parent="1" vertex="1">
          <mxGeometry x="3002" y="20" width="100" height="60" as="geometry" />
        </mxCell>
        <mxCell id="Fb8rGU0Vb5hr_vx5dvEx-37" value="" style="edgeStyle=orthogonalEdgeStyle;rounded=0;orthogonalLoop=1;jettySize=auto;html=1;" parent="1" source="Fb8rGU0Vb5hr_vx5dvEx-36" edge="1">
          <mxGeometry relative="1" as="geometry">
            <mxPoint x="3052" y="80" as="sourcePoint" />
            <mxPoint x="3052" y="140" as="targetPoint" />
          </mxGeometry>
        </mxCell>
        <mxCell id="Fb8rGU0Vb5hr_vx5dvEx-38" value="SOMA-LANCAMENTO" style="strokeWidth=2;html=1;shape=mxgraph.flowchart.start_1;whiteSpace=wrap;" parent="1" vertex="1">
          <mxGeometry x="3005" y="290" width="100" height="60" as="geometry" />
        </mxCell>
        <mxCell id="Fb8rGU0Vb5hr_vx5dvEx-48" value="" style="edgeStyle=orthogonalEdgeStyle;rounded=0;orthogonalLoop=1;jettySize=auto;html=1;exitX=0.5;exitY=1;exitDx=0;exitDy=0;exitPerimeter=0;" parent="1" source="Fb8rGU0Vb5hr_vx5dvEx-49" target="Fb8rGU0Vb5hr_vx5dvEx-51" edge="1">
          <mxGeometry relative="1" as="geometry" />
        </mxCell>
        <mxCell id="Fb8rGU0Vb5hr_vx5dvEx-49" value="MSG-ERRO" style="strokeWidth=2;html=1;shape=mxgraph.flowchart.start_1;whiteSpace=wrap;" parent="1" vertex="1">
          <mxGeometry x="4135" y="15.870000000000001" width="100" height="60" as="geometry" />
        </mxCell>
        <mxCell id="Fb8rGU0Vb5hr_vx5dvEx-50" value="" style="edgeStyle=orthogonalEdgeStyle;rounded=0;orthogonalLoop=1;jettySize=auto;html=1;" parent="1" source="Fb8rGU0Vb5hr_vx5dvEx-51" target="Fb8rGU0Vb5hr_vx5dvEx-52" edge="1">
          <mxGeometry relative="1" as="geometry" />
        </mxCell>
        <mxCell id="Fb8rGU0Vb5hr_vx5dvEx-51" value="MOSTRA MENSAGEM&amp;nbsp;&lt;div&gt;ERRO&lt;/div&gt;" style="shape=parallelogram;perimeter=parallelogramPerimeter;whiteSpace=wrap;html=1;fixedSize=1;" parent="1" vertex="1">
          <mxGeometry x="4125" y="139" width="120" height="60" as="geometry" />
        </mxCell>
        <mxCell id="Fb8rGU0Vb5hr_vx5dvEx-52" value="FIM-MSG" style="strokeWidth=2;html=1;shape=mxgraph.flowchart.start_1;whiteSpace=wrap;" parent="1" vertex="1">
          <mxGeometry x="4135" y="274.5" width="100" height="60" as="geometry" />
        </mxCell>
        <mxCell id="DAHMAMu0Ol-qw6mLWcHy-60" style="edgeStyle=orthogonalEdgeStyle;rounded=0;orthogonalLoop=1;jettySize=auto;html=1;entryX=0.5;entryY=0;entryDx=0;entryDy=0;" parent="1" source="Fb8rGU0Vb5hr_vx5dvEx-53" target="DAHMAMu0Ol-qw6mLWcHy-59" edge="1">
          <mxGeometry relative="1" as="geometry" />
        </mxCell>
        <mxCell id="DAHMAMu0Ol-qw6mLWcHy-61" value="SIM" style="edgeLabel;html=1;align=center;verticalAlign=middle;resizable=0;points=[];" parent="DAHMAMu0Ol-qw6mLWcHy-60" vertex="1" connectable="0">
          <mxGeometry x="-0.2412" y="-5" relative="1" as="geometry">
            <mxPoint x="1" as="offset" />
          </mxGeometry>
        </mxCell>
        <mxCell id="Fb8rGU0Vb5hr_vx5dvEx-53" value="PASSOU&lt;div&gt;=&lt;/div&gt;&lt;div&gt;&quot;S&quot;&lt;/div&gt;" style="strokeWidth=2;html=1;shape=mxgraph.flowchart.decision;whiteSpace=wrap;" parent="1" vertex="1">
          <mxGeometry x="1760" y="394.5" width="100" height="100" as="geometry" />
        </mxCell>
        <mxCell id="Fb8rGU0Vb5hr_vx5dvEx-54" value="" style="edgeStyle=orthogonalEdgeStyle;rounded=0;orthogonalLoop=1;jettySize=auto;html=1;" parent="1" source="Fb8rGU0Vb5hr_vx5dvEx-55" target="Fb8rGU0Vb5hr_vx5dvEx-38" edge="1">
          <mxGeometry relative="1" as="geometry" />
        </mxCell>
        <mxCell id="Fb8rGU0Vb5hr_vx5dvEx-55" value="TOTAL-LANCAMENTO=&amp;nbsp;&lt;div&gt;SALDO +&lt;div&gt;&amp;nbsp;TOTAL-LANCAMENTO&lt;/div&gt;&lt;/div&gt;" style="rounded=1;whiteSpace=wrap;html=1;absoluteArcSize=1;arcSize=14;strokeWidth=2;" parent="1" vertex="1">
          <mxGeometry x="2980" y="139" width="150" height="100" as="geometry" />
        </mxCell>
        <mxCell id="Fb8rGU0Vb5hr_vx5dvEx-61" style="edgeStyle=orthogonalEdgeStyle;rounded=0;orthogonalLoop=1;jettySize=auto;html=1;entryX=0.5;entryY=0;entryDx=0;entryDy=0;entryPerimeter=0;" parent="1" source="Fb8rGU0Vb5hr_vx5dvEx-53" target="DRe-W-lcG_uYv3L1L5YB-7" edge="1">
          <mxGeometry relative="1" as="geometry">
            <mxPoint x="1810" y="825" as="targetPoint" />
          </mxGeometry>
        </mxCell>
        <mxCell id="Fb8rGU0Vb5hr_vx5dvEx-62" value="NAO" style="edgeLabel;html=1;align=center;verticalAlign=middle;resizable=0;points=[];" parent="Fb8rGU0Vb5hr_vx5dvEx-61" vertex="1" connectable="0">
          <mxGeometry x="-0.0509" relative="1" as="geometry">
            <mxPoint y="1" as="offset" />
          </mxGeometry>
        </mxCell>
        <mxCell id="Fb8rGU0Vb5hr_vx5dvEx-63" value="" style="edgeStyle=orthogonalEdgeStyle;rounded=0;orthogonalLoop=1;jettySize=auto;html=1;" parent="1" source="DRe-W-lcG_uYv3L1L5YB-7" target="Fb8rGU0Vb5hr_vx5dvEx-64" edge="1">
          <mxGeometry relative="1" as="geometry">
            <mxPoint x="1810" y="855" as="sourcePoint" />
            <mxPoint x="1810" y="985" as="targetPoint" />
          </mxGeometry>
        </mxCell>
        <mxCell id="DAHMAMu0Ol-qw6mLWcHy-68" value="" style="edgeStyle=orthogonalEdgeStyle;rounded=0;orthogonalLoop=1;jettySize=auto;html=1;" parent="1" source="Fb8rGU0Vb5hr_vx5dvEx-64" target="DAHMAMu0Ol-qw6mLWcHy-67" edge="1">
          <mxGeometry relative="1" as="geometry" />
        </mxCell>
        <UserObject label="&amp;nbsp;LER REGISTRO" id="Fb8rGU0Vb5hr_vx5dvEx-64">
          <mxCell style="shape=process;whiteSpace=wrap;html=1;backgroundOutline=1;" parent="1" vertex="1">
            <mxGeometry x="1750" y="895" width="120" height="60" as="geometry" />
          </mxCell>
        </UserObject>
        <mxCell id="Fb8rGU0Vb5hr_vx5dvEx-73" value="" style="edgeStyle=orthogonalEdgeStyle;rounded=0;orthogonalLoop=1;jettySize=auto;html=1;" parent="1" source="Fb8rGU0Vb5hr_vx5dvEx-74" target="Fb8rGU0Vb5hr_vx5dvEx-77" edge="1">
          <mxGeometry relative="1" as="geometry" />
        </mxCell>
        <mxCell id="Fb8rGU0Vb5hr_vx5dvEx-74" value="VALIDA" style="strokeWidth=2;html=1;shape=mxgraph.flowchart.start_1;whiteSpace=wrap;" parent="1" vertex="1">
          <mxGeometry x="2340" y="20" width="100" height="60" as="geometry" />
        </mxCell>
        <mxCell id="Fb8rGU0Vb5hr_vx5dvEx-75" value="" style="edgeStyle=orthogonalEdgeStyle;rounded=0;orthogonalLoop=1;jettySize=auto;html=1;" parent="1" source="Fb8rGU0Vb5hr_vx5dvEx-77" target="Fb8rGU0Vb5hr_vx5dvEx-80" edge="1">
          <mxGeometry relative="1" as="geometry" />
        </mxCell>
        <mxCell id="Fb8rGU0Vb5hr_vx5dvEx-76" value="SIM" style="edgeLabel;html=1;align=center;verticalAlign=middle;resizable=0;points=[];" parent="Fb8rGU0Vb5hr_vx5dvEx-75" vertex="1" connectable="0">
          <mxGeometry x="-0.2667" y="1" relative="1" as="geometry">
            <mxPoint y="-1" as="offset" />
          </mxGeometry>
        </mxCell>
        <mxCell id="Fb8rGU0Vb5hr_vx5dvEx-77" value="TIPOCLIENTE&lt;div&gt;=&lt;/div&gt;&lt;div&gt;F&lt;/div&gt;" style="strokeWidth=2;html=1;shape=mxgraph.flowchart.decision;whiteSpace=wrap;" parent="1" vertex="1">
          <mxGeometry x="2340" y="140" width="100" height="100" as="geometry" />
        </mxCell>
        <mxCell id="Fb8rGU0Vb5hr_vx5dvEx-78" value="" style="edgeStyle=orthogonalEdgeStyle;rounded=0;orthogonalLoop=1;jettySize=auto;html=1;" parent="1" source="Fb8rGU0Vb5hr_vx5dvEx-80" target="Fb8rGU0Vb5hr_vx5dvEx-81" edge="1">
          <mxGeometry relative="1" as="geometry" />
        </mxCell>
        <mxCell id="Fb8rGU0Vb5hr_vx5dvEx-79" value="SIM" style="edgeLabel;html=1;align=center;verticalAlign=middle;resizable=0;points=[];" parent="Fb8rGU0Vb5hr_vx5dvEx-78" vertex="1" connectable="0">
          <mxGeometry x="-0.3408" y="1" relative="1" as="geometry">
            <mxPoint as="offset" />
          </mxGeometry>
        </mxCell>
        <mxCell id="Fb8rGU0Vb5hr_vx5dvEx-80" value="GERENTE&amp;nbsp;&lt;div&gt;=&amp;nbsp;&lt;/div&gt;&lt;div&gt;P&lt;/div&gt;" style="strokeWidth=2;html=1;shape=mxgraph.flowchart.decision;whiteSpace=wrap;" parent="1" vertex="1">
          <mxGeometry x="2340" y="310" width="100" height="100" as="geometry" />
        </mxCell>
        <mxCell id="Fb8rGU0Vb5hr_vx5dvEx-81" value="PASSOU&amp;nbsp;&lt;div&gt;=&amp;nbsp;&lt;/div&gt;&lt;div&gt;&quot;S&quot;&lt;/div&gt;" style="rounded=1;whiteSpace=wrap;html=1;absoluteArcSize=1;arcSize=14;strokeWidth=2;" parent="1" vertex="1">
          <mxGeometry x="2340" y="484.5" width="100" height="100" as="geometry" />
        </mxCell>
        <mxCell id="Fb8rGU0Vb5hr_vx5dvEx-82" value="" style="edgeStyle=orthogonalEdgeStyle;rounded=0;orthogonalLoop=1;jettySize=auto;html=1;" parent="1" source="DRe-W-lcG_uYv3L1L5YB-10" target="Fb8rGU0Vb5hr_vx5dvEx-93" edge="1">
          <mxGeometry relative="1" as="geometry">
            <mxPoint x="2471" y="670" as="sourcePoint" />
          </mxGeometry>
        </mxCell>
        <mxCell id="Fb8rGU0Vb5hr_vx5dvEx-84" value="" style="edgeStyle=orthogonalEdgeStyle;rounded=0;orthogonalLoop=1;jettySize=auto;html=1;" parent="1" target="Fb8rGU0Vb5hr_vx5dvEx-87" edge="1">
          <mxGeometry relative="1" as="geometry">
            <mxPoint x="2550" y="450" as="sourcePoint" />
          </mxGeometry>
        </mxCell>
        <mxCell id="Fb8rGU0Vb5hr_vx5dvEx-85" style="edgeStyle=orthogonalEdgeStyle;rounded=0;orthogonalLoop=1;jettySize=auto;html=1;entryX=0.5;entryY=0;entryDx=0;entryDy=0;entryPerimeter=0;" parent="1" source="Fb8rGU0Vb5hr_vx5dvEx-80" edge="1">
          <mxGeometry relative="1" as="geometry">
            <mxPoint x="2550" y="420" as="targetPoint" />
          </mxGeometry>
        </mxCell>
        <mxCell id="Fb8rGU0Vb5hr_vx5dvEx-86" value="NAO" style="edgeLabel;html=1;align=center;verticalAlign=middle;resizable=0;points=[];" parent="Fb8rGU0Vb5hr_vx5dvEx-85" vertex="1" connectable="0">
          <mxGeometry x="-0.4433" y="-1" relative="1" as="geometry">
            <mxPoint as="offset" />
          </mxGeometry>
        </mxCell>
        <mxCell id="Fb8rGU0Vb5hr_vx5dvEx-87" value="PASSOU&amp;nbsp;&lt;div&gt;=&amp;nbsp;&lt;/div&gt;&lt;div&gt;&quot;N&quot;&lt;/div&gt;" style="rounded=1;whiteSpace=wrap;html=1;absoluteArcSize=1;arcSize=14;strokeWidth=2;" parent="1" vertex="1">
          <mxGeometry x="2500" y="484.5" width="100" height="100" as="geometry" />
        </mxCell>
        <mxCell id="Fb8rGU0Vb5hr_vx5dvEx-88" value="" style="edgeStyle=orthogonalEdgeStyle;rounded=0;orthogonalLoop=1;jettySize=auto;html=1;" parent="1" source="Fb8rGU0Vb5hr_vx5dvEx-77" edge="1">
          <mxGeometry relative="1" as="geometry">
            <mxPoint x="2440" y="190" as="sourcePoint" />
            <mxPoint x="2550" y="420" as="targetPoint" />
          </mxGeometry>
        </mxCell>
        <mxCell id="Fb8rGU0Vb5hr_vx5dvEx-89" value="NAO" style="edgeLabel;html=1;align=center;verticalAlign=middle;resizable=0;points=[];" parent="Fb8rGU0Vb5hr_vx5dvEx-88" vertex="1" connectable="0">
          <mxGeometry x="-0.7296" y="-2" relative="1" as="geometry">
            <mxPoint as="offset" />
          </mxGeometry>
        </mxCell>
        <mxCell id="Fb8rGU0Vb5hr_vx5dvEx-91" style="edgeStyle=orthogonalEdgeStyle;rounded=0;orthogonalLoop=1;jettySize=auto;html=1;entryX=0;entryY=0.5;entryDx=0;entryDy=0;entryPerimeter=0;exitX=0.5;exitY=1;exitDx=0;exitDy=0;" parent="1" source="Fb8rGU0Vb5hr_vx5dvEx-81" target="DRe-W-lcG_uYv3L1L5YB-10" edge="1">
          <mxGeometry relative="1" as="geometry">
            <mxPoint x="2451" y="655" as="targetPoint" />
          </mxGeometry>
        </mxCell>
        <mxCell id="Fb8rGU0Vb5hr_vx5dvEx-92" style="edgeStyle=orthogonalEdgeStyle;rounded=0;orthogonalLoop=1;jettySize=auto;html=1;entryX=1;entryY=0.5;entryDx=0;entryDy=0;entryPerimeter=0;exitX=0.5;exitY=1;exitDx=0;exitDy=0;" parent="1" source="Fb8rGU0Vb5hr_vx5dvEx-87" target="DRe-W-lcG_uYv3L1L5YB-10" edge="1">
          <mxGeometry relative="1" as="geometry">
            <mxPoint x="2491" y="655" as="targetPoint" />
          </mxGeometry>
        </mxCell>
        <mxCell id="Fb8rGU0Vb5hr_vx5dvEx-93" value="FIM-VALIDA" style="strokeWidth=2;html=1;shape=mxgraph.flowchart.start_1;whiteSpace=wrap;" parent="1" vertex="1">
          <mxGeometry x="2421" y="730" width="100" height="60" as="geometry" />
        </mxCell>
        <mxCell id="DAHMAMu0Ol-qw6mLWcHy-5" value="" style="edgeStyle=orthogonalEdgeStyle;rounded=0;orthogonalLoop=1;jettySize=auto;html=1;" parent="1" source="DAHMAMu0Ol-qw6mLWcHy-1" target="DAHMAMu0Ol-qw6mLWcHy-3" edge="1">
          <mxGeometry relative="1" as="geometry" />
        </mxCell>
        <mxCell id="DAHMAMu0Ol-qw6mLWcHy-1" value="TESTE-STATUS" style="shape=process;whiteSpace=wrap;html=1;backgroundOutline=1;" parent="1" vertex="1">
          <mxGeometry x="294" y="274.5" width="120" height="60" as="geometry" />
        </mxCell>
        <mxCell id="DAHMAMu0Ol-qw6mLWcHy-4" value="" style="edgeStyle=orthogonalEdgeStyle;rounded=0;orthogonalLoop=1;jettySize=auto;html=1;" parent="1" source="DAHMAMu0Ol-qw6mLWcHy-3" target="Fb8rGU0Vb5hr_vx5dvEx-20" edge="1">
          <mxGeometry relative="1" as="geometry" />
        </mxCell>
        <mxCell id="DAHMAMu0Ol-qw6mLWcHy-3" value="LER-REGISTRO" style="shape=process;whiteSpace=wrap;html=1;backgroundOutline=1;" parent="1" vertex="1">
          <mxGeometry x="294" y="394.5" width="120" height="60" as="geometry" />
        </mxCell>
        <mxCell id="DAHMAMu0Ol-qw6mLWcHy-15" value="" style="edgeStyle=orthogonalEdgeStyle;rounded=0;orthogonalLoop=1;jettySize=auto;html=1;" parent="1" source="DAHMAMu0Ol-qw6mLWcHy-7" target="DAHMAMu0Ol-qw6mLWcHy-12" edge="1">
          <mxGeometry relative="1" as="geometry" />
        </mxCell>
        <mxCell id="DAHMAMu0Ol-qw6mLWcHy-7" value="TESTE-STATUS" style="strokeWidth=2;html=1;shape=mxgraph.flowchart.start_1;whiteSpace=wrap;" parent="1" vertex="1">
          <mxGeometry x="540" y="24.5" width="100" height="60" as="geometry" />
        </mxCell>
        <mxCell id="DAHMAMu0Ol-qw6mLWcHy-10" value="FIM-TESTE-STATUS" style="strokeWidth=2;html=1;shape=mxgraph.flowchart.start_1;whiteSpace=wrap;" parent="1" vertex="1">
          <mxGeometry x="540" y="400" width="100" height="60" as="geometry" />
        </mxCell>
        <mxCell id="DAHMAMu0Ol-qw6mLWcHy-11" value="" style="edgeStyle=orthogonalEdgeStyle;rounded=0;orthogonalLoop=1;jettySize=auto;html=1;" parent="1" source="DAHMAMu0Ol-qw6mLWcHy-12" target="DAHMAMu0Ol-qw6mLWcHy-14" edge="1">
          <mxGeometry relative="1" as="geometry" />
        </mxCell>
        <mxCell id="DAHMAMu0Ol-qw6mLWcHy-12" value="TESTE-LANCAM" style="shape=process;whiteSpace=wrap;html=1;backgroundOutline=1;" parent="1" vertex="1">
          <mxGeometry x="530" y="144.5" width="120" height="60" as="geometry" />
        </mxCell>
        <mxCell id="DAHMAMu0Ol-qw6mLWcHy-13" value="" style="edgeStyle=orthogonalEdgeStyle;rounded=0;orthogonalLoop=1;jettySize=auto;html=1;" parent="1" source="DAHMAMu0Ol-qw6mLWcHy-14" target="DAHMAMu0Ol-qw6mLWcHy-10" edge="1">
          <mxGeometry relative="1" as="geometry" />
        </mxCell>
        <mxCell id="DAHMAMu0Ol-qw6mLWcHy-14" value="TESTE-REGCAM" style="shape=process;whiteSpace=wrap;html=1;backgroundOutline=1;" parent="1" vertex="1">
          <mxGeometry x="530" y="274.5" width="120" height="60" as="geometry" />
        </mxCell>
        <mxCell id="DAHMAMu0Ol-qw6mLWcHy-16" value="" style="edgeStyle=orthogonalEdgeStyle;rounded=0;orthogonalLoop=1;jettySize=auto;html=1;" parent="1" source="DAHMAMu0Ol-qw6mLWcHy-17" edge="1">
          <mxGeometry relative="1" as="geometry">
            <mxPoint x="1460.0000000000002" y="144.5" as="targetPoint" />
          </mxGeometry>
        </mxCell>
        <mxCell id="DAHMAMu0Ol-qw6mLWcHy-17" value="LER-REGISTRO" style="strokeWidth=2;html=1;shape=mxgraph.flowchart.start_1;whiteSpace=wrap;" parent="1" vertex="1">
          <mxGeometry x="1410" y="24.5" width="100" height="60" as="geometry" />
        </mxCell>
        <mxCell id="DAHMAMu0Ol-qw6mLWcHy-18" value="FIM-LER-REGISTRO" style="strokeWidth=2;html=1;shape=mxgraph.flowchart.start_1;whiteSpace=wrap;" parent="1" vertex="1">
          <mxGeometry x="1410" y="720" width="100" height="60" as="geometry" />
        </mxCell>
        <mxCell id="DAHMAMu0Ol-qw6mLWcHy-48" value="" style="edgeStyle=orthogonalEdgeStyle;rounded=0;orthogonalLoop=1;jettySize=auto;html=1;" parent="1" source="DAHMAMu0Ol-qw6mLWcHy-23" target="DAHMAMu0Ol-qw6mLWcHy-27" edge="1">
          <mxGeometry relative="1" as="geometry" />
        </mxCell>
        <mxCell id="DAHMAMu0Ol-qw6mLWcHy-23" value="LEIA&amp;nbsp;&amp;nbsp;&lt;div&gt;ARQ LANCAM&lt;/div&gt;" style="shape=parallelogram;perimeter=parallelogramPerimeter;whiteSpace=wrap;html=1;fixedSize=1;" parent="1" vertex="1">
          <mxGeometry x="1400" y="144.5" width="120" height="60" as="geometry" />
        </mxCell>
        <mxCell id="DAHMAMu0Ol-qw6mLWcHy-29" value="" style="edgeStyle=orthogonalEdgeStyle;rounded=0;orthogonalLoop=1;jettySize=auto;html=1;" parent="1" source="DAHMAMu0Ol-qw6mLWcHy-27" target="DAHMAMu0Ol-qw6mLWcHy-28" edge="1">
          <mxGeometry relative="1" as="geometry" />
        </mxCell>
        <mxCell id="DAHMAMu0Ol-qw6mLWcHy-30" value="SIM" style="edgeLabel;html=1;align=center;verticalAlign=middle;resizable=0;points=[];" parent="DAHMAMu0Ol-qw6mLWcHy-29" vertex="1" connectable="0">
          <mxGeometry x="-0.303" relative="1" as="geometry">
            <mxPoint y="-1" as="offset" />
          </mxGeometry>
        </mxCell>
        <mxCell id="DAHMAMu0Ol-qw6mLWcHy-41" style="edgeStyle=orthogonalEdgeStyle;rounded=0;orthogonalLoop=1;jettySize=auto;html=1;entryX=0.5;entryY=0;entryDx=0;entryDy=0;entryPerimeter=0;" parent="1" source="DAHMAMu0Ol-qw6mLWcHy-27" target="DAHMAMu0Ol-qw6mLWcHy-45" edge="1">
          <mxGeometry relative="1" as="geometry">
            <mxPoint x="1670" y="430" as="targetPoint" />
          </mxGeometry>
        </mxCell>
        <mxCell id="DAHMAMu0Ol-qw6mLWcHy-42" value="NAO" style="edgeLabel;html=1;align=center;verticalAlign=middle;resizable=0;points=[];" parent="DAHMAMu0Ol-qw6mLWcHy-41" vertex="1" connectable="0">
          <mxGeometry x="-0.5353" y="9" relative="1" as="geometry">
            <mxPoint as="offset" />
          </mxGeometry>
        </mxCell>
        <mxCell id="DAHMAMu0Ol-qw6mLWcHy-27" value="ARQ-LANCAM&lt;div&gt;TEM REGISTRO&lt;/div&gt;" style="strokeWidth=2;html=1;shape=mxgraph.flowchart.decision;whiteSpace=wrap;" parent="1" vertex="1">
          <mxGeometry x="1410" y="254.5" width="100" height="100" as="geometry" />
        </mxCell>
        <mxCell id="DAHMAMu0Ol-qw6mLWcHy-36" value="" style="edgeStyle=orthogonalEdgeStyle;rounded=0;orthogonalLoop=1;jettySize=auto;html=1;" parent="1" source="DAHMAMu0Ol-qw6mLWcHy-28" target="DAHMAMu0Ol-qw6mLWcHy-35" edge="1">
          <mxGeometry relative="1" as="geometry" />
        </mxCell>
        <mxCell id="DAHMAMu0Ol-qw6mLWcHy-38" value="SIM" style="edgeLabel;html=1;align=center;verticalAlign=middle;resizable=0;points=[];" parent="DAHMAMu0Ol-qw6mLWcHy-36" vertex="1" connectable="0">
          <mxGeometry x="-0.1101" y="1" relative="1" as="geometry">
            <mxPoint y="-1" as="offset" />
          </mxGeometry>
        </mxCell>
        <mxCell id="DAHMAMu0Ol-qw6mLWcHy-39" value="" style="edgeStyle=orthogonalEdgeStyle;rounded=0;orthogonalLoop=1;jettySize=auto;html=1;entryX=0;entryY=0.5;entryDx=0;entryDy=0;entryPerimeter=0;" parent="1" source="DAHMAMu0Ol-qw6mLWcHy-28" target="DAHMAMu0Ol-qw6mLWcHy-45" edge="1">
          <mxGeometry relative="1" as="geometry">
            <mxPoint x="1610" y="460" as="targetPoint" />
          </mxGeometry>
        </mxCell>
        <mxCell id="DAHMAMu0Ol-qw6mLWcHy-40" value="NAO" style="edgeLabel;html=1;align=center;verticalAlign=middle;resizable=0;points=[];" parent="DAHMAMu0Ol-qw6mLWcHy-39" vertex="1" connectable="0">
          <mxGeometry x="-0.3101" y="4" relative="1" as="geometry">
            <mxPoint as="offset" />
          </mxGeometry>
        </mxCell>
        <mxCell id="DAHMAMu0Ol-qw6mLWcHy-28" value="ARQ-LANCAM&lt;div&gt;CHEGOU EOF&lt;/div&gt;" style="strokeWidth=2;html=1;shape=mxgraph.flowchart.decision;whiteSpace=wrap;" parent="1" vertex="1">
          <mxGeometry x="1410" y="409.5" width="100" height="100" as="geometry" />
        </mxCell>
        <mxCell id="DAHMAMu0Ol-qw6mLWcHy-37" value="" style="edgeStyle=orthogonalEdgeStyle;rounded=0;orthogonalLoop=1;jettySize=auto;html=1;" parent="1" source="DAHMAMu0Ol-qw6mLWcHy-35" target="DAHMAMu0Ol-qw6mLWcHy-18" edge="1">
          <mxGeometry relative="1" as="geometry" />
        </mxCell>
        <mxCell id="DAHMAMu0Ol-qw6mLWcHy-35" value="" style="strokeWidth=2;html=1;shape=mxgraph.flowchart.start_2;whiteSpace=wrap;" parent="1" vertex="1">
          <mxGeometry x="1445" y="620" width="30" height="30" as="geometry" />
        </mxCell>
        <mxCell id="DAHMAMu0Ol-qw6mLWcHy-47" value="" style="edgeStyle=orthogonalEdgeStyle;rounded=0;orthogonalLoop=1;jettySize=auto;html=1;" parent="1" source="DAHMAMu0Ol-qw6mLWcHy-43" target="DAHMAMu0Ol-qw6mLWcHy-35" edge="1">
          <mxGeometry relative="1" as="geometry" />
        </mxCell>
        <mxCell id="DAHMAMu0Ol-qw6mLWcHy-43" value="MSG-ERRO" style="shape=process;whiteSpace=wrap;html=1;backgroundOutline=1;" parent="1" vertex="1">
          <mxGeometry x="1575" y="605" width="120" height="60" as="geometry" />
        </mxCell>
        <mxCell id="DAHMAMu0Ol-qw6mLWcHy-46" style="edgeStyle=orthogonalEdgeStyle;rounded=0;orthogonalLoop=1;jettySize=auto;html=1;entryX=0.5;entryY=0;entryDx=0;entryDy=0;" parent="1" source="DAHMAMu0Ol-qw6mLWcHy-45" target="DAHMAMu0Ol-qw6mLWcHy-43" edge="1">
          <mxGeometry relative="1" as="geometry" />
        </mxCell>
        <mxCell id="DAHMAMu0Ol-qw6mLWcHy-45" value="" style="strokeWidth=2;html=1;shape=mxgraph.flowchart.start_2;whiteSpace=wrap;" parent="1" vertex="1">
          <mxGeometry x="1620" y="444.5" width="30" height="30" as="geometry" />
        </mxCell>
        <mxCell id="DAHMAMu0Ol-qw6mLWcHy-58" value="" style="edgeStyle=orthogonalEdgeStyle;rounded=0;orthogonalLoop=1;jettySize=auto;html=1;" parent="1" source="DAHMAMu0Ol-qw6mLWcHy-56" target="Fb8rGU0Vb5hr_vx5dvEx-53" edge="1">
          <mxGeometry relative="1" as="geometry" />
        </mxCell>
        <mxCell id="DAHMAMu0Ol-qw6mLWcHy-56" value="VALIDA" style="shape=process;whiteSpace=wrap;html=1;backgroundOutline=1;" parent="1" vertex="1">
          <mxGeometry x="1750" y="294.5" width="120" height="60" as="geometry" />
        </mxCell>
        <mxCell id="a9pxLpY7ujTMrCNamdjX-9" value="" style="edgeStyle=orthogonalEdgeStyle;rounded=0;orthogonalLoop=1;jettySize=auto;html=1;" edge="1" parent="1" source="DAHMAMu0Ol-qw6mLWcHy-59" target="a9pxLpY7ujTMrCNamdjX-8">
          <mxGeometry relative="1" as="geometry" />
        </mxCell>
        <mxCell id="DAHMAMu0Ol-qw6mLWcHy-59" value="GRAVAR-ARQUIVO" style="shape=process;whiteSpace=wrap;html=1;backgroundOutline=1;" parent="1" vertex="1">
          <mxGeometry x="1920" y="480" width="120" height="60" as="geometry" />
        </mxCell>
        <mxCell id="DAHMAMu0Ol-qw6mLWcHy-62" value="SOMA-LANCAMENTO" style="shape=process;whiteSpace=wrap;html=1;backgroundOutline=1;" parent="1" vertex="1">
          <mxGeometry x="2088" y="650" width="120" height="60" as="geometry" />
        </mxCell>
        <mxCell id="DAHMAMu0Ol-qw6mLWcHy-64" value="ACUM-VALIDO = ACUM-VALIDO + 1" style="rounded=1;whiteSpace=wrap;html=1;absoluteArcSize=1;arcSize=14;strokeWidth=2;" parent="1" vertex="1">
          <mxGeometry x="1920" y="812.5" width="120" height="65" as="geometry" />
        </mxCell>
        <mxCell id="DAHMAMu0Ol-qw6mLWcHy-70" style="edgeStyle=orthogonalEdgeStyle;rounded=0;orthogonalLoop=1;jettySize=auto;html=1;entryX=0.5;entryY=0;entryDx=0;entryDy=0;" parent="1" source="DAHMAMu0Ol-qw6mLWcHy-67" target="DAHMAMu0Ol-qw6mLWcHy-69" edge="1">
          <mxGeometry relative="1" as="geometry" />
        </mxCell>
        <mxCell id="DAHMAMu0Ol-qw6mLWcHy-74" value="SIM" style="edgeLabel;html=1;align=center;verticalAlign=middle;resizable=0;points=[];" parent="DAHMAMu0Ol-qw6mLWcHy-70" vertex="1" connectable="0">
          <mxGeometry x="-0.4989" y="7" relative="1" as="geometry">
            <mxPoint x="1" as="offset" />
          </mxGeometry>
        </mxCell>
        <mxCell id="DAHMAMu0Ol-qw6mLWcHy-67" value="&lt;div&gt;&lt;span style=&quot;background-color: initial;&quot;&gt;&amp;nbsp; ARQ-LANCAM&lt;/span&gt;&lt;br&gt;&lt;/div&gt;&lt;div&gt;EOF&lt;/div&gt;" style="strokeWidth=2;html=1;shape=mxgraph.flowchart.decision;whiteSpace=wrap;" parent="1" vertex="1">
          <mxGeometry x="1760" y="1000" width="100" height="100" as="geometry" />
        </mxCell>
        <mxCell id="DAHMAMu0Ol-qw6mLWcHy-69" value="STATISTICA" style="shape=process;whiteSpace=wrap;html=1;backgroundOutline=1;" parent="1" vertex="1">
          <mxGeometry x="1890" y="1109" width="120" height="60" as="geometry" />
        </mxCell>
        <mxCell id="DAHMAMu0Ol-qw6mLWcHy-77" value="" style="edgeStyle=orthogonalEdgeStyle;rounded=0;orthogonalLoop=1;jettySize=auto;html=1;" parent="1" source="DAHMAMu0Ol-qw6mLWcHy-71" target="Fb8rGU0Vb5hr_vx5dvEx-28" edge="1">
          <mxGeometry relative="1" as="geometry" />
        </mxCell>
        <mxCell id="DAHMAMu0Ol-qw6mLWcHy-71" value="" style="strokeWidth=2;html=1;shape=mxgraph.flowchart.start_2;whiteSpace=wrap;" parent="1" vertex="1">
          <mxGeometry x="1790" y="1210" width="40" height="30" as="geometry" />
        </mxCell>
        <mxCell id="DAHMAMu0Ol-qw6mLWcHy-72" style="edgeStyle=orthogonalEdgeStyle;rounded=0;orthogonalLoop=1;jettySize=auto;html=1;entryX=0.5;entryY=0;entryDx=0;entryDy=0;entryPerimeter=0;" parent="1" source="DAHMAMu0Ol-qw6mLWcHy-67" target="DAHMAMu0Ol-qw6mLWcHy-71" edge="1">
          <mxGeometry relative="1" as="geometry" />
        </mxCell>
        <mxCell id="a9pxLpY7ujTMrCNamdjX-24" value="NAO" style="edgeLabel;html=1;align=center;verticalAlign=middle;resizable=0;points=[];" vertex="1" connectable="0" parent="DAHMAMu0Ol-qw6mLWcHy-72">
          <mxGeometry x="-0.0884" relative="1" as="geometry">
            <mxPoint as="offset" />
          </mxGeometry>
        </mxCell>
        <mxCell id="DAHMAMu0Ol-qw6mLWcHy-76" style="edgeStyle=orthogonalEdgeStyle;rounded=0;orthogonalLoop=1;jettySize=auto;html=1;entryX=1;entryY=0.5;entryDx=0;entryDy=0;entryPerimeter=0;exitX=0.5;exitY=1;exitDx=0;exitDy=0;" parent="1" source="DAHMAMu0Ol-qw6mLWcHy-69" target="DAHMAMu0Ol-qw6mLWcHy-71" edge="1">
          <mxGeometry relative="1" as="geometry" />
        </mxCell>
        <mxCell id="DAHMAMu0Ol-qw6mLWcHy-80" value="" style="edgeStyle=orthogonalEdgeStyle;rounded=0;orthogonalLoop=1;jettySize=auto;html=1;" parent="1" source="DAHMAMu0Ol-qw6mLWcHy-78" target="DAHMAMu0Ol-qw6mLWcHy-79" edge="1">
          <mxGeometry relative="1" as="geometry" />
        </mxCell>
        <mxCell id="DAHMAMu0Ol-qw6mLWcHy-78" value="STATISTICA" style="strokeWidth=2;html=1;shape=mxgraph.flowchart.start_1;whiteSpace=wrap;" parent="1" vertex="1">
          <mxGeometry x="2098" y="24.5" width="100" height="60" as="geometry" />
        </mxCell>
        <mxCell id="DAHMAMu0Ol-qw6mLWcHy-82" value="" style="edgeStyle=orthogonalEdgeStyle;rounded=0;orthogonalLoop=1;jettySize=auto;html=1;" parent="1" source="DAHMAMu0Ol-qw6mLWcHy-79" target="DAHMAMu0Ol-qw6mLWcHy-81" edge="1">
          <mxGeometry relative="1" as="geometry" />
        </mxCell>
        <mxCell id="DAHMAMu0Ol-qw6mLWcHy-79" value="ACUM-LIDOS&lt;div&gt;ACUM-VALIDO&lt;/div&gt;&lt;div&gt;TOTAL-LANCAMENTO&lt;/div&gt;" style="strokeWidth=2;html=1;shape=mxgraph.flowchart.display;whiteSpace=wrap;" parent="1" vertex="1">
          <mxGeometry x="2068" y="139" width="160" height="70" as="geometry" />
        </mxCell>
        <mxCell id="DAHMAMu0Ol-qw6mLWcHy-81" value="FIM-STATISTICA" style="strokeWidth=2;html=1;shape=mxgraph.flowchart.start_1;whiteSpace=wrap;" parent="1" vertex="1">
          <mxGeometry x="2098" y="264.5" width="100" height="60" as="geometry" />
        </mxCell>
        <mxCell id="DAHMAMu0Ol-qw6mLWcHy-85" value="" style="edgeStyle=orthogonalEdgeStyle;rounded=0;orthogonalLoop=1;jettySize=auto;html=1;" parent="1" source="DAHMAMu0Ol-qw6mLWcHy-83" target="DAHMAMu0Ol-qw6mLWcHy-84" edge="1">
          <mxGeometry relative="1" as="geometry" />
        </mxCell>
        <mxCell id="DAHMAMu0Ol-qw6mLWcHy-83" value="GRAVAR-ARQUIVO" style="strokeWidth=2;html=1;shape=mxgraph.flowchart.start_1;whiteSpace=wrap;" parent="1" vertex="1">
          <mxGeometry x="2670" y="20" width="100" height="60" as="geometry" />
        </mxCell>
        <mxCell id="DAHMAMu0Ol-qw6mLWcHy-87" value="" style="edgeStyle=orthogonalEdgeStyle;rounded=0;orthogonalLoop=1;jettySize=auto;html=1;" parent="1" source="DAHMAMu0Ol-qw6mLWcHy-84" target="DAHMAMu0Ol-qw6mLWcHy-86" edge="1">
          <mxGeometry relative="1" as="geometry" />
        </mxCell>
        <mxCell id="DAHMAMu0Ol-qw6mLWcHy-84" value="GRAVA&lt;div&gt;REGCAM&lt;/div&gt;" style="shape=parallelogram;perimeter=parallelogramPerimeter;whiteSpace=wrap;html=1;fixedSize=1;" parent="1" vertex="1">
          <mxGeometry x="2660" y="129" width="120" height="60" as="geometry" />
        </mxCell>
        <mxCell id="DAHMAMu0Ol-qw6mLWcHy-89" style="edgeStyle=orthogonalEdgeStyle;rounded=0;orthogonalLoop=1;jettySize=auto;html=1;" parent="1" source="DAHMAMu0Ol-qw6mLWcHy-86" target="DAHMAMu0Ol-qw6mLWcHy-88" edge="1">
          <mxGeometry relative="1" as="geometry" />
        </mxCell>
        <mxCell id="DAHMAMu0Ol-qw6mLWcHy-90" value="NAO" style="edgeLabel;html=1;align=center;verticalAlign=middle;resizable=0;points=[];" parent="DAHMAMu0Ol-qw6mLWcHy-89" vertex="1" connectable="0">
          <mxGeometry x="-0.5875" y="-1" relative="1" as="geometry">
            <mxPoint x="-1" as="offset" />
          </mxGeometry>
        </mxCell>
        <mxCell id="DAHMAMu0Ol-qw6mLWcHy-86" value="ARQ-REGCAM&lt;div&gt;GRAVOU&lt;/div&gt;" style="strokeWidth=2;html=1;shape=mxgraph.flowchart.decision;whiteSpace=wrap;" parent="1" vertex="1">
          <mxGeometry x="2670" y="244.5" width="100" height="100" as="geometry" />
        </mxCell>
        <mxCell id="DAHMAMu0Ol-qw6mLWcHy-88" value="MSG-ERRO" style="shape=process;whiteSpace=wrap;html=1;backgroundOutline=1;" parent="1" vertex="1">
          <mxGeometry x="2790" y="360" width="120" height="60" as="geometry" />
        </mxCell>
        <mxCell id="DAHMAMu0Ol-qw6mLWcHy-97" value="" style="edgeStyle=orthogonalEdgeStyle;rounded=0;orthogonalLoop=1;jettySize=auto;html=1;" parent="1" target="DAHMAMu0Ol-qw6mLWcHy-96" edge="1">
          <mxGeometry relative="1" as="geometry">
            <mxPoint x="2720" y="505" as="sourcePoint" />
          </mxGeometry>
        </mxCell>
        <mxCell id="DAHMAMu0Ol-qw6mLWcHy-93" style="edgeStyle=orthogonalEdgeStyle;rounded=0;orthogonalLoop=1;jettySize=auto;html=1;entryX=0.5;entryY=0;entryDx=0;entryDy=0;entryPerimeter=0;" parent="1" source="DAHMAMu0Ol-qw6mLWcHy-86" target="DRe-W-lcG_uYv3L1L5YB-13" edge="1">
          <mxGeometry relative="1" as="geometry">
            <mxPoint x="2720" y="475" as="targetPoint" />
          </mxGeometry>
        </mxCell>
        <mxCell id="DAHMAMu0Ol-qw6mLWcHy-94" value="SIM" style="edgeLabel;html=1;align=center;verticalAlign=middle;resizable=0;points=[];" parent="DAHMAMu0Ol-qw6mLWcHy-93" vertex="1" connectable="0">
          <mxGeometry x="-0.077" y="2" relative="1" as="geometry">
            <mxPoint as="offset" />
          </mxGeometry>
        </mxCell>
        <mxCell id="DAHMAMu0Ol-qw6mLWcHy-95" style="edgeStyle=orthogonalEdgeStyle;rounded=0;orthogonalLoop=1;jettySize=auto;html=1;entryX=1;entryY=0.5;entryDx=0;entryDy=0;entryPerimeter=0;exitX=0.5;exitY=1;exitDx=0;exitDy=0;" parent="1" source="DAHMAMu0Ol-qw6mLWcHy-88" target="DRe-W-lcG_uYv3L1L5YB-13" edge="1">
          <mxGeometry relative="1" as="geometry">
            <mxPoint x="2740" y="490" as="targetPoint" />
          </mxGeometry>
        </mxCell>
        <mxCell id="DAHMAMu0Ol-qw6mLWcHy-96" value="FIM-GRAVAR-ARQUIVO" style="strokeWidth=2;html=1;shape=mxgraph.flowchart.start_1;whiteSpace=wrap;" parent="1" vertex="1">
          <mxGeometry x="2670" y="555" width="100" height="60" as="geometry" />
        </mxCell>
        <mxCell id="DAHMAMu0Ol-qw6mLWcHy-102" value="" style="edgeStyle=orthogonalEdgeStyle;rounded=0;orthogonalLoop=1;jettySize=auto;html=1;" parent="1" source="DAHMAMu0Ol-qw6mLWcHy-99" target="DAHMAMu0Ol-qw6mLWcHy-100" edge="1">
          <mxGeometry relative="1" as="geometry" />
        </mxCell>
        <UserObject label="FINALIAR-LANCAM" id="DAHMAMu0Ol-qw6mLWcHy-99">
          <mxCell style="shape=process;whiteSpace=wrap;html=1;backgroundOutline=1;" parent="1" vertex="1">
            <mxGeometry x="3240" y="130" width="120" height="60" as="geometry" />
          </mxCell>
        </UserObject>
        <mxCell id="DAHMAMu0Ol-qw6mLWcHy-104" value="" style="edgeStyle=orthogonalEdgeStyle;rounded=0;orthogonalLoop=1;jettySize=auto;html=1;" parent="1" source="DAHMAMu0Ol-qw6mLWcHy-100" target="DAHMAMu0Ol-qw6mLWcHy-103" edge="1">
          <mxGeometry relative="1" as="geometry" />
        </mxCell>
        <UserObject label="FINALIAR-REGCAM" id="DAHMAMu0Ol-qw6mLWcHy-100">
          <mxCell style="shape=process;whiteSpace=wrap;html=1;backgroundOutline=1;" parent="1" vertex="1">
            <mxGeometry x="3240" y="244.5" width="120" height="60" as="geometry" />
          </mxCell>
        </UserObject>
        <mxCell id="DAHMAMu0Ol-qw6mLWcHy-103" value="FIM-FINALIZAR" style="strokeWidth=2;html=1;shape=mxgraph.flowchart.start_1;whiteSpace=wrap;" parent="1" vertex="1">
          <mxGeometry x="3250" y="359.5" width="100" height="60" as="geometry" />
        </mxCell>
        <mxCell id="DAHMAMu0Ol-qw6mLWcHy-107" value="" style="edgeStyle=orthogonalEdgeStyle;rounded=0;orthogonalLoop=1;jettySize=auto;html=1;" parent="1" source="DAHMAMu0Ol-qw6mLWcHy-105" target="DAHMAMu0Ol-qw6mLWcHy-106" edge="1">
          <mxGeometry relative="1" as="geometry" />
        </mxCell>
        <mxCell id="DAHMAMu0Ol-qw6mLWcHy-105" value="TESTE-LANCAM" style="strokeWidth=2;html=1;shape=mxgraph.flowchart.start_1;whiteSpace=wrap;" parent="1" vertex="1">
          <mxGeometry x="770" y="24.5" width="100" height="60" as="geometry" />
        </mxCell>
        <mxCell id="DAHMAMu0Ol-qw6mLWcHy-110" value="" style="edgeStyle=orthogonalEdgeStyle;rounded=0;orthogonalLoop=1;jettySize=auto;html=1;" parent="1" source="DAHMAMu0Ol-qw6mLWcHy-106" target="DAHMAMu0Ol-qw6mLWcHy-109" edge="1">
          <mxGeometry relative="1" as="geometry" />
        </mxCell>
        <mxCell id="DAHMAMu0Ol-qw6mLWcHy-114" value="NAO" style="edgeLabel;html=1;align=center;verticalAlign=middle;resizable=0;points=[];" parent="DAHMAMu0Ol-qw6mLWcHy-110" vertex="1" connectable="0">
          <mxGeometry x="-0.258" y="-2" relative="1" as="geometry">
            <mxPoint y="-1" as="offset" />
          </mxGeometry>
        </mxCell>
        <mxCell id="DAHMAMu0Ol-qw6mLWcHy-112" style="edgeStyle=orthogonalEdgeStyle;rounded=0;orthogonalLoop=1;jettySize=auto;html=1;entryX=0.5;entryY=0;entryDx=0;entryDy=0;" parent="1" source="DAHMAMu0Ol-qw6mLWcHy-106" target="DAHMAMu0Ol-qw6mLWcHy-108" edge="1">
          <mxGeometry relative="1" as="geometry" />
        </mxCell>
        <mxCell id="DAHMAMu0Ol-qw6mLWcHy-113" value="SIM" style="edgeLabel;html=1;align=center;verticalAlign=middle;resizable=0;points=[];" parent="DAHMAMu0Ol-qw6mLWcHy-112" vertex="1" connectable="0">
          <mxGeometry x="-0.3471" y="-3" relative="1" as="geometry">
            <mxPoint as="offset" />
          </mxGeometry>
        </mxCell>
        <mxCell id="DAHMAMu0Ol-qw6mLWcHy-106" value="ARQ-LANCAM&lt;div&gt;NAO ABRIU&lt;/div&gt;" style="strokeWidth=2;html=1;shape=mxgraph.flowchart.decision;whiteSpace=wrap;" parent="1" vertex="1">
          <mxGeometry x="770" y="134.5" width="100" height="100" as="geometry" />
        </mxCell>
        <mxCell id="DAHMAMu0Ol-qw6mLWcHy-108" value="TRATA-ERRO" style="shape=process;whiteSpace=wrap;html=1;backgroundOutline=1;" parent="1" vertex="1">
          <mxGeometry x="910" y="239" width="120" height="60" as="geometry" />
        </mxCell>
        <mxCell id="DAHMAMu0Ol-qw6mLWcHy-116" value="" style="edgeStyle=orthogonalEdgeStyle;rounded=0;orthogonalLoop=1;jettySize=auto;html=1;" parent="1" source="DAHMAMu0Ol-qw6mLWcHy-109" target="DAHMAMu0Ol-qw6mLWcHy-115" edge="1">
          <mxGeometry relative="1" as="geometry" />
        </mxCell>
        <mxCell id="DAHMAMu0Ol-qw6mLWcHy-109" value="" style="strokeWidth=2;html=1;shape=mxgraph.flowchart.start_2;whiteSpace=wrap;" parent="1" vertex="1">
          <mxGeometry x="805" y="334.5" width="30" height="30" as="geometry" />
        </mxCell>
        <mxCell id="DAHMAMu0Ol-qw6mLWcHy-111" style="edgeStyle=orthogonalEdgeStyle;rounded=0;orthogonalLoop=1;jettySize=auto;html=1;entryX=1;entryY=0.5;entryDx=0;entryDy=0;entryPerimeter=0;exitX=0.5;exitY=1;exitDx=0;exitDy=0;" parent="1" source="DAHMAMu0Ol-qw6mLWcHy-108" target="DAHMAMu0Ol-qw6mLWcHy-109" edge="1">
          <mxGeometry relative="1" as="geometry" />
        </mxCell>
        <mxCell id="DAHMAMu0Ol-qw6mLWcHy-115" value="TESTE-LANCAM" style="strokeWidth=2;html=1;shape=mxgraph.flowchart.start_1;whiteSpace=wrap;" parent="1" vertex="1">
          <mxGeometry x="770" y="399" width="100" height="60" as="geometry" />
        </mxCell>
        <mxCell id="DAHMAMu0Ol-qw6mLWcHy-117" value="" style="edgeStyle=orthogonalEdgeStyle;rounded=0;orthogonalLoop=1;jettySize=auto;html=1;" parent="1" source="DAHMAMu0Ol-qw6mLWcHy-118" target="DAHMAMu0Ol-qw6mLWcHy-123" edge="1">
          <mxGeometry relative="1" as="geometry" />
        </mxCell>
        <mxCell id="DAHMAMu0Ol-qw6mLWcHy-118" value="TESTE-REGCAM" style="strokeWidth=2;html=1;shape=mxgraph.flowchart.start_1;whiteSpace=wrap;" parent="1" vertex="1">
          <mxGeometry x="1060" y="24.5" width="100" height="60" as="geometry" />
        </mxCell>
        <mxCell id="DAHMAMu0Ol-qw6mLWcHy-119" value="" style="edgeStyle=orthogonalEdgeStyle;rounded=0;orthogonalLoop=1;jettySize=auto;html=1;" parent="1" source="DAHMAMu0Ol-qw6mLWcHy-123" target="DAHMAMu0Ol-qw6mLWcHy-126" edge="1">
          <mxGeometry relative="1" as="geometry" />
        </mxCell>
        <mxCell id="DAHMAMu0Ol-qw6mLWcHy-120" value="NAO" style="edgeLabel;html=1;align=center;verticalAlign=middle;resizable=0;points=[];" parent="DAHMAMu0Ol-qw6mLWcHy-119" vertex="1" connectable="0">
          <mxGeometry x="-0.258" y="-2" relative="1" as="geometry">
            <mxPoint y="-1" as="offset" />
          </mxGeometry>
        </mxCell>
        <mxCell id="DAHMAMu0Ol-qw6mLWcHy-121" style="edgeStyle=orthogonalEdgeStyle;rounded=0;orthogonalLoop=1;jettySize=auto;html=1;entryX=0.5;entryY=0;entryDx=0;entryDy=0;" parent="1" source="DAHMAMu0Ol-qw6mLWcHy-123" target="DAHMAMu0Ol-qw6mLWcHy-124" edge="1">
          <mxGeometry relative="1" as="geometry" />
        </mxCell>
        <mxCell id="DAHMAMu0Ol-qw6mLWcHy-122" value="SIM" style="edgeLabel;html=1;align=center;verticalAlign=middle;resizable=0;points=[];" parent="DAHMAMu0Ol-qw6mLWcHy-121" vertex="1" connectable="0">
          <mxGeometry x="-0.3471" y="-3" relative="1" as="geometry">
            <mxPoint as="offset" />
          </mxGeometry>
        </mxCell>
        <mxCell id="DAHMAMu0Ol-qw6mLWcHy-123" value="&amp;nbsp;ARQ-REGCAM&lt;div&gt;NAO ABRIU&lt;/div&gt;" style="strokeWidth=2;html=1;shape=mxgraph.flowchart.decision;whiteSpace=wrap;" parent="1" vertex="1">
          <mxGeometry x="1060" y="134.5" width="100" height="100" as="geometry" />
        </mxCell>
        <mxCell id="DAHMAMu0Ol-qw6mLWcHy-124" value="FINALIZAR-LANCAM" style="shape=process;whiteSpace=wrap;html=1;backgroundOutline=1;" parent="1" vertex="1">
          <mxGeometry x="1200" y="239" width="120" height="60" as="geometry" />
        </mxCell>
        <mxCell id="DAHMAMu0Ol-qw6mLWcHy-125" value="" style="edgeStyle=orthogonalEdgeStyle;rounded=0;orthogonalLoop=1;jettySize=auto;html=1;" parent="1" source="DAHMAMu0Ol-qw6mLWcHy-126" target="DAHMAMu0Ol-qw6mLWcHy-128" edge="1">
          <mxGeometry relative="1" as="geometry" />
        </mxCell>
        <mxCell id="DAHMAMu0Ol-qw6mLWcHy-126" value="" style="strokeWidth=2;html=1;shape=mxgraph.flowchart.start_2;whiteSpace=wrap;" parent="1" vertex="1">
          <mxGeometry x="1095" y="401.75" width="30" height="30" as="geometry" />
        </mxCell>
        <mxCell id="DAHMAMu0Ol-qw6mLWcHy-127" style="edgeStyle=orthogonalEdgeStyle;rounded=0;orthogonalLoop=1;jettySize=auto;html=1;entryX=1;entryY=0.5;entryDx=0;entryDy=0;entryPerimeter=0;exitX=0.5;exitY=1;exitDx=0;exitDy=0;" parent="1" source="DAHMAMu0Ol-qw6mLWcHy-129" target="DAHMAMu0Ol-qw6mLWcHy-126" edge="1">
          <mxGeometry relative="1" as="geometry" />
        </mxCell>
        <mxCell id="DAHMAMu0Ol-qw6mLWcHy-128" value="TESTE-LANCAM" style="strokeWidth=2;html=1;shape=mxgraph.flowchart.start_1;whiteSpace=wrap;" parent="1" vertex="1">
          <mxGeometry x="1060" y="466.25" width="100" height="60" as="geometry" />
        </mxCell>
        <mxCell id="DAHMAMu0Ol-qw6mLWcHy-130" value="" style="edgeStyle=orthogonalEdgeStyle;rounded=0;orthogonalLoop=1;jettySize=auto;html=1;entryX=0.5;entryY=0;entryDx=0;entryDy=0;exitX=0.5;exitY=1;exitDx=0;exitDy=0;" parent="1" source="DAHMAMu0Ol-qw6mLWcHy-124" target="DAHMAMu0Ol-qw6mLWcHy-129" edge="1">
          <mxGeometry relative="1" as="geometry">
            <mxPoint x="1260" y="299" as="sourcePoint" />
            <mxPoint x="1125" y="417" as="targetPoint" />
          </mxGeometry>
        </mxCell>
        <mxCell id="DAHMAMu0Ol-qw6mLWcHy-129" value="TRATA-ERRO" style="shape=process;whiteSpace=wrap;html=1;backgroundOutline=1;" parent="1" vertex="1">
          <mxGeometry x="1200" y="319.5" width="120" height="60" as="geometry" />
        </mxCell>
        <mxCell id="DAHMAMu0Ol-qw6mLWcHy-135" value="" style="edgeStyle=orthogonalEdgeStyle;rounded=0;orthogonalLoop=1;jettySize=auto;html=1;" parent="1" source="DAHMAMu0Ol-qw6mLWcHy-131" target="DAHMAMu0Ol-qw6mLWcHy-132" edge="1">
          <mxGeometry relative="1" as="geometry" />
        </mxCell>
        <mxCell id="DAHMAMu0Ol-qw6mLWcHy-131" value="FINALIZAR-LANCAM" style="strokeWidth=2;html=1;shape=mxgraph.flowchart.start_1;whiteSpace=wrap;" parent="1" vertex="1">
          <mxGeometry x="3469.89" y="20" width="100" height="60" as="geometry" />
        </mxCell>
        <mxCell id="DAHMAMu0Ol-qw6mLWcHy-134" value="" style="edgeStyle=orthogonalEdgeStyle;rounded=0;orthogonalLoop=1;jettySize=auto;html=1;" parent="1" source="DAHMAMu0Ol-qw6mLWcHy-132" target="DAHMAMu0Ol-qw6mLWcHy-133" edge="1">
          <mxGeometry relative="1" as="geometry" />
        </mxCell>
        <mxCell id="DAHMAMu0Ol-qw6mLWcHy-132" value="FECHA&amp;nbsp;&lt;div&gt;ARQ-LANCAM&lt;/div&gt;" style="shape=parallelogram;perimeter=parallelogramPerimeter;whiteSpace=wrap;html=1;fixedSize=1;" parent="1" vertex="1">
          <mxGeometry x="3459.89" y="120" width="120" height="60" as="geometry" />
        </mxCell>
        <mxCell id="DAHMAMu0Ol-qw6mLWcHy-142" style="edgeStyle=orthogonalEdgeStyle;rounded=0;orthogonalLoop=1;jettySize=auto;html=1;entryX=0.5;entryY=0;entryDx=0;entryDy=0;" parent="1" source="DAHMAMu0Ol-qw6mLWcHy-133" target="DAHMAMu0Ol-qw6mLWcHy-141" edge="1">
          <mxGeometry relative="1" as="geometry" />
        </mxCell>
        <mxCell id="DAHMAMu0Ol-qw6mLWcHy-144" value="NAO" style="edgeLabel;html=1;align=center;verticalAlign=middle;resizable=0;points=[];" parent="DAHMAMu0Ol-qw6mLWcHy-142" vertex="1" connectable="0">
          <mxGeometry x="-0.3415" y="-2" relative="1" as="geometry">
            <mxPoint as="offset" />
          </mxGeometry>
        </mxCell>
        <mxCell id="DAHMAMu0Ol-qw6mLWcHy-133" value="ARQ-LANCAM&lt;div&gt;FECHOU&lt;/div&gt;" style="strokeWidth=2;html=1;shape=mxgraph.flowchart.decision;whiteSpace=wrap;" parent="1" vertex="1">
          <mxGeometry x="3469.89" y="224.5" width="100" height="100" as="geometry" />
        </mxCell>
        <mxCell id="DAHMAMu0Ol-qw6mLWcHy-147" value="" style="edgeStyle=orthogonalEdgeStyle;rounded=0;orthogonalLoop=1;jettySize=auto;html=1;" parent="1" source="DRe-W-lcG_uYv3L1L5YB-14" target="DAHMAMu0Ol-qw6mLWcHy-146" edge="1">
          <mxGeometry relative="1" as="geometry">
            <mxPoint x="3519.8899999999994" y="419.5" as="sourcePoint" />
          </mxGeometry>
        </mxCell>
        <mxCell id="DAHMAMu0Ol-qw6mLWcHy-139" style="edgeStyle=orthogonalEdgeStyle;rounded=0;orthogonalLoop=1;jettySize=auto;html=1;entryX=0;entryY=0.5;entryDx=0;entryDy=0;entryPerimeter=0;exitX=0;exitY=0.5;exitDx=0;exitDy=0;exitPerimeter=0;" parent="1" source="DAHMAMu0Ol-qw6mLWcHy-133" target="DRe-W-lcG_uYv3L1L5YB-14" edge="1">
          <mxGeometry relative="1" as="geometry">
            <Array as="points">
              <mxPoint x="3410" y="275" />
              <mxPoint x="3410" y="417" />
            </Array>
            <mxPoint x="3499.8899999999994" y="404.5" as="targetPoint" />
          </mxGeometry>
        </mxCell>
        <mxCell id="DAHMAMu0Ol-qw6mLWcHy-145" value="SIM" style="edgeLabel;html=1;align=center;verticalAlign=middle;resizable=0;points=[];" parent="DAHMAMu0Ol-qw6mLWcHy-139" vertex="1" connectable="0">
          <mxGeometry x="-0.8044" relative="1" as="geometry">
            <mxPoint x="-1" as="offset" />
          </mxGeometry>
        </mxCell>
        <UserObject label="MSG-ERRO" id="DAHMAMu0Ol-qw6mLWcHy-141">
          <mxCell style="shape=process;whiteSpace=wrap;html=1;backgroundOutline=1;" parent="1" vertex="1">
            <mxGeometry x="3579.89" y="310" width="120" height="60" as="geometry" />
          </mxCell>
        </UserObject>
        <mxCell id="DAHMAMu0Ol-qw6mLWcHy-143" style="edgeStyle=orthogonalEdgeStyle;rounded=0;orthogonalLoop=1;jettySize=auto;html=1;exitX=0.5;exitY=1;exitDx=0;exitDy=0;entryX=1;entryY=0.5;entryDx=0;entryDy=0;entryPerimeter=0;" parent="1" source="DAHMAMu0Ol-qw6mLWcHy-141" target="DRe-W-lcG_uYv3L1L5YB-14" edge="1">
          <mxGeometry relative="1" as="geometry">
            <mxPoint x="3539.8899999999994" y="404.5" as="targetPoint" />
          </mxGeometry>
        </mxCell>
        <mxCell id="DAHMAMu0Ol-qw6mLWcHy-146" value="FIM-FINALIZAR-LANCAM" style="strokeWidth=2;html=1;shape=mxgraph.flowchart.start_1;whiteSpace=wrap;" parent="1" vertex="1">
          <mxGeometry x="3469.89" y="466.25" width="100" height="60" as="geometry" />
        </mxCell>
        <mxCell id="DAHMAMu0Ol-qw6mLWcHy-148" value="" style="edgeStyle=orthogonalEdgeStyle;rounded=0;orthogonalLoop=1;jettySize=auto;html=1;" parent="1" source="DAHMAMu0Ol-qw6mLWcHy-149" target="DAHMAMu0Ol-qw6mLWcHy-151" edge="1">
          <mxGeometry relative="1" as="geometry" />
        </mxCell>
        <mxCell id="DAHMAMu0Ol-qw6mLWcHy-149" value="FINALIZAR-REGCAM" style="strokeWidth=2;html=1;shape=mxgraph.flowchart.start_1;whiteSpace=wrap;" parent="1" vertex="1">
          <mxGeometry x="3799.95" y="15.87" width="100" height="60" as="geometry" />
        </mxCell>
        <mxCell id="DAHMAMu0Ol-qw6mLWcHy-150" value="" style="edgeStyle=orthogonalEdgeStyle;rounded=0;orthogonalLoop=1;jettySize=auto;html=1;" parent="1" source="DAHMAMu0Ol-qw6mLWcHy-151" target="DAHMAMu0Ol-qw6mLWcHy-154" edge="1">
          <mxGeometry relative="1" as="geometry" />
        </mxCell>
        <mxCell id="DAHMAMu0Ol-qw6mLWcHy-151" value="FECHA&amp;nbsp;&lt;div&gt;ARQ-REGCAM&lt;/div&gt;" style="shape=parallelogram;perimeter=parallelogramPerimeter;whiteSpace=wrap;html=1;fixedSize=1;" parent="1" vertex="1">
          <mxGeometry x="3789.95" y="115.87" width="120" height="60" as="geometry" />
        </mxCell>
        <mxCell id="DAHMAMu0Ol-qw6mLWcHy-152" style="edgeStyle=orthogonalEdgeStyle;rounded=0;orthogonalLoop=1;jettySize=auto;html=1;entryX=0.5;entryY=0;entryDx=0;entryDy=0;" parent="1" source="DAHMAMu0Ol-qw6mLWcHy-154" target="DAHMAMu0Ol-qw6mLWcHy-159" edge="1">
          <mxGeometry relative="1" as="geometry" />
        </mxCell>
        <mxCell id="DAHMAMu0Ol-qw6mLWcHy-153" value="NAO" style="edgeLabel;html=1;align=center;verticalAlign=middle;resizable=0;points=[];" parent="DAHMAMu0Ol-qw6mLWcHy-152" vertex="1" connectable="0">
          <mxGeometry x="-0.3415" y="-2" relative="1" as="geometry">
            <mxPoint as="offset" />
          </mxGeometry>
        </mxCell>
        <mxCell id="DAHMAMu0Ol-qw6mLWcHy-154" value="ARQ-REGCAM&lt;div&gt;FECHOU&lt;/div&gt;" style="strokeWidth=2;html=1;shape=mxgraph.flowchart.decision;whiteSpace=wrap;" parent="1" vertex="1">
          <mxGeometry x="3799.95" y="220.37" width="100" height="100" as="geometry" />
        </mxCell>
        <mxCell id="DAHMAMu0Ol-qw6mLWcHy-155" value="" style="edgeStyle=orthogonalEdgeStyle;rounded=0;orthogonalLoop=1;jettySize=auto;html=1;" parent="1" source="DRe-W-lcG_uYv3L1L5YB-15" target="DAHMAMu0Ol-qw6mLWcHy-161" edge="1">
          <mxGeometry relative="1" as="geometry">
            <mxPoint x="3849.95" y="415.37" as="sourcePoint" />
          </mxGeometry>
        </mxCell>
        <mxCell id="DAHMAMu0Ol-qw6mLWcHy-157" style="edgeStyle=orthogonalEdgeStyle;rounded=0;orthogonalLoop=1;jettySize=auto;html=1;entryX=0;entryY=0.5;entryDx=0;entryDy=0;entryPerimeter=0;exitX=0;exitY=0.5;exitDx=0;exitDy=0;exitPerimeter=0;" parent="1" source="DAHMAMu0Ol-qw6mLWcHy-154" target="DRe-W-lcG_uYv3L1L5YB-15" edge="1">
          <mxGeometry relative="1" as="geometry">
            <Array as="points">
              <mxPoint x="3740" y="270" />
              <mxPoint x="3740" y="415" />
            </Array>
            <mxPoint x="3829.95" y="400.37" as="targetPoint" />
          </mxGeometry>
        </mxCell>
        <mxCell id="DAHMAMu0Ol-qw6mLWcHy-158" value="SIM" style="edgeLabel;html=1;align=center;verticalAlign=middle;resizable=0;points=[];" parent="DAHMAMu0Ol-qw6mLWcHy-157" vertex="1" connectable="0">
          <mxGeometry x="-0.8044" relative="1" as="geometry">
            <mxPoint x="-1" as="offset" />
          </mxGeometry>
        </mxCell>
        <UserObject label="MSG-ERRO" id="DAHMAMu0Ol-qw6mLWcHy-159">
          <mxCell style="shape=process;whiteSpace=wrap;html=1;backgroundOutline=1;" parent="1" vertex="1">
            <mxGeometry x="3909.95" y="305.87" width="120" height="60" as="geometry" />
          </mxCell>
        </UserObject>
        <mxCell id="DAHMAMu0Ol-qw6mLWcHy-160" style="edgeStyle=orthogonalEdgeStyle;rounded=0;orthogonalLoop=1;jettySize=auto;html=1;exitX=0.5;exitY=1;exitDx=0;exitDy=0;entryX=1;entryY=0.5;entryDx=0;entryDy=0;entryPerimeter=0;" parent="1" source="DAHMAMu0Ol-qw6mLWcHy-159" target="DRe-W-lcG_uYv3L1L5YB-15" edge="1">
          <mxGeometry relative="1" as="geometry">
            <mxPoint x="3869.95" y="400.37" as="targetPoint" />
          </mxGeometry>
        </mxCell>
        <mxCell id="DAHMAMu0Ol-qw6mLWcHy-161" value="FIM-FINALIZAR-REGCAM" style="strokeWidth=2;html=1;shape=mxgraph.flowchart.start_1;whiteSpace=wrap;" parent="1" vertex="1">
          <mxGeometry x="3799.95" y="462.12" width="100" height="60" as="geometry" />
        </mxCell>
        <mxCell id="DRe-W-lcG_uYv3L1L5YB-9" value="" style="edgeStyle=orthogonalEdgeStyle;rounded=0;orthogonalLoop=1;jettySize=auto;html=1;" parent="1" target="DRe-W-lcG_uYv3L1L5YB-7" edge="1">
          <mxGeometry relative="1" as="geometry">
            <mxPoint x="1810" y="855" as="sourcePoint" />
            <mxPoint x="1810" y="895" as="targetPoint" />
          </mxGeometry>
        </mxCell>
        <mxCell id="DRe-W-lcG_uYv3L1L5YB-7" value="" style="strokeWidth=2;html=1;shape=mxgraph.flowchart.start_2;whiteSpace=wrap;" parent="1" vertex="1">
          <mxGeometry x="1795" y="830" width="30" height="30" as="geometry" />
        </mxCell>
        <mxCell id="DRe-W-lcG_uYv3L1L5YB-10" value="" style="strokeWidth=2;html=1;shape=mxgraph.flowchart.start_2;whiteSpace=wrap;" parent="1" vertex="1">
          <mxGeometry x="2456" y="660" width="30" height="30" as="geometry" />
        </mxCell>
        <mxCell id="DRe-W-lcG_uYv3L1L5YB-12" value="" style="strokeWidth=2;html=1;shape=mxgraph.flowchart.start_2;whiteSpace=wrap;" parent="1" vertex="1">
          <mxGeometry x="2535" y="420" width="30" height="30" as="geometry" />
        </mxCell>
        <mxCell id="DRe-W-lcG_uYv3L1L5YB-13" value="" style="strokeWidth=2;html=1;shape=mxgraph.flowchart.start_2;whiteSpace=wrap;" parent="1" vertex="1">
          <mxGeometry x="2705" y="477.12" width="30" height="30" as="geometry" />
        </mxCell>
        <mxCell id="DRe-W-lcG_uYv3L1L5YB-14" value="" style="strokeWidth=2;html=1;shape=mxgraph.flowchart.start_2;whiteSpace=wrap;" parent="1" vertex="1">
          <mxGeometry x="3504.89" y="401.75" width="30" height="30" as="geometry" />
        </mxCell>
        <mxCell id="DRe-W-lcG_uYv3L1L5YB-15" value="" style="strokeWidth=2;html=1;shape=mxgraph.flowchart.start_2;whiteSpace=wrap;" parent="1" vertex="1">
          <mxGeometry x="3834.95" y="400" width="30" height="30" as="geometry" />
        </mxCell>
        <mxCell id="a9pxLpY7ujTMrCNamdjX-1" value="" style="edgeStyle=orthogonalEdgeStyle;rounded=0;orthogonalLoop=1;jettySize=auto;html=1;exitX=0.5;exitY=1;exitDx=0;exitDy=0;exitPerimeter=0;" edge="1" parent="1" source="a9pxLpY7ujTMrCNamdjX-2" target="a9pxLpY7ujTMrCNamdjX-4">
          <mxGeometry relative="1" as="geometry" />
        </mxCell>
        <mxCell id="a9pxLpY7ujTMrCNamdjX-2" value="TRATA-ERRO" style="strokeWidth=2;html=1;shape=mxgraph.flowchart.start_1;whiteSpace=wrap;" vertex="1" parent="1">
          <mxGeometry x="4320" y="15.870000000000001" width="100" height="60" as="geometry" />
        </mxCell>
        <mxCell id="a9pxLpY7ujTMrCNamdjX-3" value="" style="edgeStyle=orthogonalEdgeStyle;rounded=0;orthogonalLoop=1;jettySize=auto;html=1;" edge="1" parent="1" source="a9pxLpY7ujTMrCNamdjX-6" target="a9pxLpY7ujTMrCNamdjX-5">
          <mxGeometry relative="1" as="geometry" />
        </mxCell>
        <mxCell id="a9pxLpY7ujTMrCNamdjX-4" value="MOSTRA MENSAGEM&amp;nbsp;&lt;div&gt;ERRO&lt;/div&gt;" style="shape=parallelogram;perimeter=parallelogramPerimeter;whiteSpace=wrap;html=1;fixedSize=1;" vertex="1" parent="1">
          <mxGeometry x="4310" y="139" width="120" height="60" as="geometry" />
        </mxCell>
        <mxCell id="a9pxLpY7ujTMrCNamdjX-5" value="FIM-MSG" style="strokeWidth=2;html=1;shape=mxgraph.flowchart.start_1;whiteSpace=wrap;" vertex="1" parent="1">
          <mxGeometry x="4320" y="324.5" width="100" height="60" as="geometry" />
        </mxCell>
        <mxCell id="a9pxLpY7ujTMrCNamdjX-7" value="" style="edgeStyle=orthogonalEdgeStyle;rounded=0;orthogonalLoop=1;jettySize=auto;html=1;" edge="1" parent="1" source="a9pxLpY7ujTMrCNamdjX-4" target="a9pxLpY7ujTMrCNamdjX-6">
          <mxGeometry relative="1" as="geometry">
            <mxPoint x="4370" y="199" as="sourcePoint" />
            <mxPoint x="4370" y="320" as="targetPoint" />
          </mxGeometry>
        </mxCell>
        <mxCell id="a9pxLpY7ujTMrCNamdjX-6" value="ENCERRA&amp;nbsp;&lt;div&gt;PROGRAMA&lt;/div&gt;" style="shape=parallelogram;perimeter=parallelogramPerimeter;whiteSpace=wrap;html=1;fixedSize=1;" vertex="1" parent="1">
          <mxGeometry x="4310" y="230" width="120" height="60" as="geometry" />
        </mxCell>
        <mxCell id="a9pxLpY7ujTMrCNamdjX-10" value="" style="edgeStyle=orthogonalEdgeStyle;rounded=0;orthogonalLoop=1;jettySize=auto;html=1;entryX=0.5;entryY=0;entryDx=0;entryDy=0;" edge="1" parent="1" source="a9pxLpY7ujTMrCNamdjX-8" target="DAHMAMu0Ol-qw6mLWcHy-62">
          <mxGeometry relative="1" as="geometry" />
        </mxCell>
        <mxCell id="a9pxLpY7ujTMrCNamdjX-11" value="SIM" style="edgeLabel;html=1;align=center;verticalAlign=middle;resizable=0;points=[];" vertex="1" connectable="0" parent="a9pxLpY7ujTMrCNamdjX-10">
          <mxGeometry x="-0.1077" relative="1" as="geometry">
            <mxPoint as="offset" />
          </mxGeometry>
        </mxCell>
        <mxCell id="a9pxLpY7ujTMrCNamdjX-16" value="" style="edgeStyle=orthogonalEdgeStyle;rounded=0;orthogonalLoop=1;jettySize=auto;html=1;" edge="1" parent="1" source="a9pxLpY7ujTMrCNamdjX-8" target="a9pxLpY7ujTMrCNamdjX-15">
          <mxGeometry relative="1" as="geometry" />
        </mxCell>
        <mxCell id="a9pxLpY7ujTMrCNamdjX-17" value="NAO" style="edgeLabel;html=1;align=center;verticalAlign=middle;resizable=0;points=[];" vertex="1" connectable="0" parent="a9pxLpY7ujTMrCNamdjX-16">
          <mxGeometry x="-0.1341" y="2" relative="1" as="geometry">
            <mxPoint as="offset" />
          </mxGeometry>
        </mxCell>
        <mxCell id="a9pxLpY7ujTMrCNamdjX-8" value="REGCAM&lt;div&gt;GRAVOU&amp;nbsp;&lt;/div&gt;" style="strokeWidth=2;html=1;shape=mxgraph.flowchart.decision;whiteSpace=wrap;" vertex="1" parent="1">
          <mxGeometry x="1930" y="574.5" width="100" height="100" as="geometry" />
        </mxCell>
        <mxCell id="a9pxLpY7ujTMrCNamdjX-19" value="" style="edgeStyle=orthogonalEdgeStyle;rounded=0;orthogonalLoop=1;jettySize=auto;html=1;" edge="1" parent="1" source="a9pxLpY7ujTMrCNamdjX-15" target="DAHMAMu0Ol-qw6mLWcHy-64">
          <mxGeometry relative="1" as="geometry" />
        </mxCell>
        <mxCell id="a9pxLpY7ujTMrCNamdjX-15" value="" style="strokeWidth=2;html=1;shape=mxgraph.flowchart.start_2;whiteSpace=wrap;" vertex="1" parent="1">
          <mxGeometry x="1965" y="745" width="30" height="30" as="geometry" />
        </mxCell>
        <mxCell id="a9pxLpY7ujTMrCNamdjX-18" style="edgeStyle=orthogonalEdgeStyle;rounded=0;orthogonalLoop=1;jettySize=auto;html=1;entryX=1;entryY=0.5;entryDx=0;entryDy=0;entryPerimeter=0;exitX=0.5;exitY=1;exitDx=0;exitDy=0;" edge="1" parent="1" source="DAHMAMu0Ol-qw6mLWcHy-62" target="a9pxLpY7ujTMrCNamdjX-15">
          <mxGeometry relative="1" as="geometry" />
        </mxCell>
        <mxCell id="a9pxLpY7ujTMrCNamdjX-20" style="edgeStyle=orthogonalEdgeStyle;rounded=0;orthogonalLoop=1;jettySize=auto;html=1;entryX=1;entryY=0.5;entryDx=0;entryDy=0;entryPerimeter=0;" edge="1" parent="1" source="DAHMAMu0Ol-qw6mLWcHy-64" target="DRe-W-lcG_uYv3L1L5YB-7">
          <mxGeometry relative="1" as="geometry" />
        </mxCell>
      </root>
    </mxGraphModel>
  </diagram>
</mxfile>
